<?xml version="1.0" encoding="utf-8"?>
<!-- Generator: Adobe Illustrator 21.0.0, SVG Export Plug-In . SVG Version: 6.00 Build 0)  -->
<svg version="1.1" xmlns="http://www.w3.org/2000/svg" xmlns:xlink="http://www.w3.org/1999/xlink" x="0px" y="0px"
	 viewBox="0 0 300 300" style="enable-background:new 0 0 300 300;" xml:space="preserve">
<style type="text/css">
	.st0{fill:#52A259;}
	.st1{fill:#FFFFFF;}
	.st2{fill:none;}
</style>
<g id="Lager_2">
	<g>
		<rect class="st0" width="300" height="300"/>
	</g>
</g>
<g id="Lager_1">
	<g>
		<path class="st1" d="M150.9,33C86.5,33,34.3,85.3,34.3,149.7s52.1,116.7,116.6,116.7c64.5,0,116.8-52.3,116.8-116.7
			S215.4,33,150.9,33z M151,243c-51.6,0-93.3-41.8-93.3-93.3S99.4,56.3,151,56.3s93.3,41.8,93.3,93.3S202.6,243,151,243z"/>
		<path class="st2" d="M11,9.7h280v280H11V9.7z"/>
		<path class="st1" d="M156.8,91.3h-17.5v70l61.3,36.8l8.8-14.3l-52.5-31.2V91.3z"/>
	</g>
</g>
</svg>
