<?xml version="1.0" encoding="utf-8"?>
<!-- Generator: Adobe Illustrator 21.0.0, SVG Export Plug-In . SVG Version: 6.00 Build 0)  -->
<svg version="1.1" xmlns="http://www.w3.org/2000/svg" xmlns:xlink="http://www.w3.org/1999/xlink" x="0px" y="0px"
	 viewBox="0 0 300 300" style="enable-background:new 0 0 300 300;" xml:space="preserve">
<style type="text/css">
	.st0{fill:#AA5E81;}
	.st1{fill:#A6D9E8;}
	.st2{fill:#61BC00;}
	.st3{fill:none;stroke:#FFFFFF;stroke-width:15;stroke-miterlimit:10;}
	.st4{fill:none;stroke:#FFFFFF;stroke-width:20;stroke-miterlimit:10;}
	.st5{fill:none;stroke:#FFFFFF;stroke-width:10;stroke-miterlimit:10;}
	.st6{fill:url(#SVGID_1_);}
</style>
<g id="Lager_2">
	<g>
		<rect class="st0" width="300" height="300"/>
	</g>
</g>
<g id="Lager_1">
	<g>
		<path class="st1" d="M179.4,93.4c10-5.3,23.2-9.8,39.3-9.8c17.2,0,30.7,5.2,40.3,10.9V40.3H40.5v69.3h48.9
			C125.9,91.2,172.5,93.1,179.4,93.4z"/>
		<path class="st2" d="M179.4,93.4c0.6,0,0.9,0.1,0.9,0.1l-4.7,16.2H259V94.6c-9.7-5.7-23.2-10.9-40.3-10.9
			C202.7,83.7,189.4,88.2,179.4,93.4z"/>
		<path class="st2" d="M157.7,109.7C157.7,109.7,157.7,109.7,157.7,109.7l-68.2,0c0,0,0,0,0,0l86.2,0.1l0-0.1H157.7z"/>
		<path class="st2" d="M179.4,93.4c-7-0.4-53.5-2.2-90,16.2h68.3C157.9,109.4,165.6,100.7,179.4,93.4z"/>
		<path class="st2" d="M157.7,109.7C157.7,109.7,157.7,109.7,157.7,109.7l17.9,0l0,0H157.7z"/>
		<path class="st2" d="M180.3,93.5c0,0-0.3,0-0.9-0.1c-13.8,7.3-21.5,16-21.7,16.2h17.9L180.3,93.5z"/>
	</g>
	<rect x="40.5" y="40.9" class="st3" width="218.5" height="218.1"/>
	<line class="st4" x1="68" y1="143.7" x2="231.5" y2="143.7"/>
	<line class="st5" x1="43.3" y1="112.7" x2="253.7" y2="112.7"/>
	<line class="st4" x1="68.5" y1="182.2" x2="232" y2="182.2"/>
	<line class="st4" x1="68" y1="220.7" x2="231.5" y2="220.7"/>
	<linearGradient id="SVGID_1_" gradientUnits="userSpaceOnUse" x1="82.1265" y1="54.8755" x2="64.3735" y2="85.6245">
		<stop  offset="0" style="stop-color:#E6EC00"/>
		<stop  offset="1" style="stop-color:#E0E77A"/>
	</linearGradient>
	<circle class="st6" cx="73.3" cy="70.3" r="17.8"/>
</g>
<g id="Lager_4">
</g>
<g id="Lager_3">
</g>
</svg>
