<?xml version="1.0" encoding="utf-8"?>
<!-- Generator: Adobe Illustrator 21.0.0, SVG Export Plug-In . SVG Version: 6.00 Build 0)  -->
<svg version="1.1" xmlns="http://www.w3.org/2000/svg" xmlns:xlink="http://www.w3.org/1999/xlink" x="0px" y="0px"
	 viewBox="0 0 300 300" style="enable-background:new 0 0 300 300;" xml:space="preserve">
<style type="text/css">
	.st0{fill:#FFB74D;}
	.st1{fill:#FFFFFF;}
	.st2{fill:none;}
</style>
<g id="Lager_2">
	<g>
		<rect class="st0" width="300" height="300"/>
	</g>
</g>
<g id="Lager_1">
	<g>
		<path class="st1" d="M199.1,182.1h-10l-3.6-3.4c12.4-14.5,19.9-33.3,19.9-53.7c0-45.6-36.9-82.5-82.5-82.5s-82.5,36.9-82.5,82.5
			s36.9,82.5,82.5,82.5c20.4,0,39.2-7.5,53.7-19.9l3.4,3.6v10l63.5,63.3l18.9-18.9L199.1,182.1z M122.9,182.1
			c-31.6,0-57.1-25.5-57.1-57.1s25.5-57.1,57.1-57.1s57.1,25.5,57.1,57.1S154.5,182.1,122.9,182.1z"/>
		<path class="st2" d="M2.3,4.3H307V309H2.3V4.3z"/>
	</g>
</g>
</svg>
