<?xml version="1.0" encoding="utf-8"?>
<!-- Generator: Adobe Illustrator 21.0.0, SVG Export Plug-In . SVG Version: 6.00 Build 0)  -->
<svg version="1.1" xmlns="http://www.w3.org/2000/svg" xmlns:xlink="http://www.w3.org/1999/xlink" x="0px" y="0px"
	 viewBox="0 0 300 300" style="enable-background:new 0 0 300 300;" xml:space="preserve">
<style type="text/css">
	.st0{fill:#6A3B51;}
	.st1{fill:#A6D9E8;}
	.st2{fill:#61BC00;}
	.st3{fill:none;stroke:#FFFFFF;stroke-width:15;stroke-miterlimit:10;}
	.st4{fill:none;stroke:#FFFFFF;stroke-width:10;stroke-miterlimit:10;}
	.st5{fill:none;stroke:#FFFFFF;stroke-width:20;stroke-miterlimit:10;}
	.st6{fill:url(#SVGID_1_);}
</style>
<g id="Lager_2">
	<g>
		<rect class="st0" width="300" height="300"/>
	</g>
</g>
<g id="Lager_1">
	<g>
		<path class="st1" d="M179.4,148.6c10-10.5,23.2-19.4,39.3-19.4c17.2,0,30.7,10.3,40.3,21.7V43H40.5v137.9h48.9
			C125.9,144.2,172.5,147.9,179.4,148.6z"/>
		<path class="st2" d="M179.4,148.6c0.6,0.1,0.9,0.1,0.9,0.1l-4.7,32.2H259v-30c-9.7-11.4-23.2-21.7-40.3-21.7
			C202.7,129.2,189.4,138.2,179.4,148.6z"/>
		<path class="st2" d="M157.7,181C157.7,181,157.7,180.9,157.7,181l-68.2,0c0,0,0,0,0,0l86.2,0.2l0-0.1H157.7z"/>
		<path class="st2" d="M179.4,148.6c-7-0.8-53.5-4.4-90,32.3h68.3C157.9,180.4,165.6,163.1,179.4,148.6z"/>
		<path class="st2" d="M157.7,180.9C157.7,180.9,157.7,181,157.7,180.9l17.9,0l0,0H157.7z"/>
		<path class="st2" d="M180.3,148.8c0,0-0.3,0-0.9-0.1c-13.8,14.5-21.5,31.8-21.7,32.3h17.9L180.3,148.8z"/>
	</g>
	<rect x="40.5" y="40.9" class="st3" width="218.5" height="218.1"/>
	<line class="st4" x1="43.3" y1="184.7" x2="253.7" y2="184.7"/>
	<line class="st5" x1="68" y1="220.7" x2="231.5" y2="220.7"/>
	<linearGradient id="SVGID_1_" gradientUnits="userSpaceOnUse" x1="90.7932" y1="66.8755" x2="73.0402" y2="97.6245">
		<stop  offset="0" style="stop-color:#E6EC00"/>
		<stop  offset="1" style="stop-color:#E0E77A"/>
	</linearGradient>
	<circle class="st6" cx="81.9" cy="82.3" r="17.8"/>
</g>
<g id="Lager_4">
</g>
<g id="Lager_3">
</g>
</svg>
