<?xml version="1.0" encoding="utf-8"?>
<!-- Generator: Adobe Illustrator 21.0.0, SVG Export Plug-In . SVG Version: 6.00 Build 0)  -->
<svg version="1.1" id="Lager_1" xmlns="http://www.w3.org/2000/svg" xmlns:xlink="http://www.w3.org/1999/xlink" x="0px" y="0px"
	 viewBox="0 0 300 300" style="enable-background:new 0 0 300 300;" xml:space="preserve">
<style type="text/css">
	.st0{fill:#74A0EE;}
	.st1{fill:#6D7ACD;}
	.st2{fill:#A478C5;}
	.st3{fill:#CCCCCC;}
	.st4{fill:none;stroke:#FFFFFF;stroke-width:10;stroke-miterlimit:10;}
	.st5{fill:none;stroke:#4D4D4D;stroke-width:10;stroke-miterlimit:10;}
</style>
<g>
	<rect y="0" class="st0" width="300" height="54.5"/>
</g>
<g>
	<rect y="68.2" class="st1" width="300" height="54.5"/>
</g>
<g>
	<rect y="136.2" class="st2" width="300" height="54.5"/>
</g>
<g>
	<rect y="190.7" class="st3" width="300" height="109.3"/>
</g>
<g>
	<line class="st4" x1="25" y1="27" x2="187" y2="27"/>
</g>
<g>
	<line class="st4" x1="25" y1="95" x2="187" y2="95"/>
</g>
<g>
	<line class="st4" x1="25" y1="163" x2="187" y2="163"/>
</g>
<g>
	<line class="st5" x1="25" y1="218" x2="275" y2="218"/>
</g>
<g>
	<line class="st5" x1="25" y1="245" x2="275" y2="245"/>
</g>
<g>
	<line class="st5" x1="25" y1="273" x2="275" y2="273"/>
</g>
<line class="st4" x1="236" y1="27" x2="264" y2="27"/>
<line class="st4" x1="250" y1="41" x2="250" y2="13"/>
<line class="st4" x1="236" y1="95" x2="264" y2="95"/>
<line class="st4" x1="250" y1="109" x2="250" y2="81"/>
<line class="st4" x1="240.1" y1="154.1" x2="259.9" y2="173.9"/>
<line class="st4" x1="240.1" y1="173.9" x2="259.9" y2="154.1"/>
</svg>
